<svg width="32" height="30" viewBox="0 0 32 30" fill="none" xmlns="http://www.w3.org/2000/svg">
<path d="M0.5 1.4697C0.5 0.934147 0.920581 0.5 1.43939 0.5H2.37879C2.8976 0.5 3.31818 0.934148 3.31818 1.4697V28.5303C3.31818 29.0659 2.8976 29.5 2.37879 29.5H1.43939C0.920581 29.5 0.5 29.0659 0.5 28.5303V1.4697Z" fill="white"/>
<path d="M30.5606 26.5909C31.0794 26.5909 31.5 27.0251 31.5 27.5606V28.5303C31.5 29.0659 31.0794 29.5 30.5606 29.5H1.43939C0.920581 29.5 0.5 29.0659 0.5 28.5303L0.5 27.5606C0.5 27.0251 0.920581 26.5909 1.43939 26.5909H30.5606Z" fill="white"/>
<path d="M8.53355 10.8426L2.85024 15.7006C2.62798 15.8906 2.5 16.1684 2.5 16.4608L2.37879 27.5606H29.5V10.3486C29.5 9.55398 28.6179 9.07679 27.9527 9.51166L17.8559 16.1135C17.5015 16.3452 17.0396 16.3286 16.7028 16.0721L9.78916 10.8072C9.4145 10.5218 8.89153 10.5366 8.53355 10.8426Z" fill="white"/>
</svg>
