<svg width="32" height="32" viewBox="0 0 32 32" fill="none" xmlns="http://www.w3.org/2000/svg">
<path d="M0.5 29C0.5 28.4477 0.947715 28 1.5 28H30.5C31.0523 28 31.5 28.4477 31.5 29V30C31.5 30.5523 31.0523 31 30.5 31H1.5C0.947714 31 0.5 30.5523 0.5 30V29Z" fill="#3E74FE"/>
<path d="M9.5 16C10.0523 16 10.5 16.4477 10.5 17L10.5 29C10.5 29.5523 10.0523 30 9.5 30H4.5C3.94771 30 3.5 29.5523 3.5 29L3.5 17C3.5 16.4477 3.94772 16 4.5 16H9.5Z" fill="#3E74FE"/>
<path d="M18.5 8C19.0523 8 19.5 8.44772 19.5 9V29C19.5 29.5523 19.0523 30 18.5 30H13.5C12.9477 30 12.5 29.5523 12.5 29L12.5 9C12.5 8.44772 12.9477 8 13.5 8H18.5Z" fill="#3E74FE"/>
<path d="M27.5 1C28.0523 1 28.5 1.44772 28.5 2L28.5 29C28.5 29.5523 28.0523 30 27.5 30H22.5C21.9477 30 21.5 29.5523 21.5 29L21.5 2C21.5 1.44772 21.9477 1 22.5 1L27.5 1Z" fill="#3E74FE"/>
</svg>
