<svg width="32" height="32" viewBox="0 0 32 32" fill="none" xmlns="http://www.w3.org/2000/svg">
<path d="M27.8309 5.51701C27.4418 5.0939 26.7754 5.13085 26.4034 5.56906L23.4381 9.06219C23.1063 9.45309 23.1288 10.0283 23.4468 10.4305C24.7004 12.0162 25.4489 14.0132 25.4489 16.1849C25.4489 16.54 25.4284 16.8902 25.389 17.2347C25.3299 17.7521 25.6231 18.2598 26.1215 18.4106L30.5179 19.7406C31.0639 19.9057 31.6404 19.5818 31.7431 19.0206C31.9115 18.1005 32 17.1531 32 16.1849C32 12.0739 30.4191 8.33153 27.8309 5.51701Z" fill="#3E74FE"/>
<path d="M11.4182 6.82963C11.7002 7.2648 12.2661 7.40665 12.7456 7.20936C13.8537 6.75343 15.0683 6.5014 16.3427 6.5014C17.9449 6.5014 19.453 6.8998 20.7733 7.60124C21.2196 7.83832 21.7801 7.76297 22.1071 7.37773L25.0737 3.88283C25.4501 3.43942 25.3714 2.76699 24.8793 2.457C22.4107 0.901988 19.4832 0 16.3427 0C13.8139 0 11.4242 0.586701 9.29993 1.62655C8.78488 1.87867 8.63001 2.52588 8.94181 3.00716L11.4182 6.82963Z" fill="#3E74FE"/>
<path d="M25.3241 20.3865C24.8493 20.2421 24.3452 20.4711 24.0938 20.8991C22.7468 23.1926 20.4725 24.8605 17.6614 25.3622C17.15 25.4535 16.7507 25.8808 16.7507 26.4002V30.9469C16.7507 31.5195 17.2316 31.9781 17.8003 31.9116C23.3395 31.2637 28.0072 27.8155 30.3237 23.0388C30.5796 22.5112 30.2828 21.895 29.7218 21.7244L25.3241 20.3865Z" fill="#3E74FE"/>
<path d="M14.6237 26.3095C14.6237 25.8084 14.251 25.3904 13.7626 25.2783C9.59152 24.3206 6.56033 20.6137 6.56033 16.1845C6.56033 13.6828 7.5825 11.4124 9.20358 9.73666C9.55017 9.37839 9.63437 8.82827 9.36436 8.40925L6.87712 4.54937C6.56074 4.05838 5.89059 3.94004 5.45125 4.32494C2.13959 7.22625 0 11.4627 0 16.1845C0 24.137 5.90848 30.7167 13.5481 31.8462C14.1251 31.9315 14.6237 31.4693 14.6237 30.886V26.3095Z" fill="#3E74FE"/>
</svg>
