<svg width="32" height="32" viewBox="0 0 32 32" fill="none" xmlns="http://www.w3.org/2000/svg">
<path d="M18.8758 23.8824C18.8758 25.2468 17.7521 26.3529 16.366 26.3529C14.9799 26.3529 13.8562 25.2468 13.8562 23.8824C13.8562 22.5179 14.9799 21.4118 16.366 21.4118C17.7521 21.4118 18.8758 22.5179 18.8758 23.8824Z" fill="white"/>
<path d="M10.4575 18.6211C10.4575 19.9856 9.33383 21.0917 7.9477 21.0917C6.56158 21.0917 5.4379 19.9856 5.4379 18.6211C5.4379 17.2566 6.56158 16.1505 7.9477 16.1505C9.33383 16.1505 10.4575 17.2566 10.4575 18.6211Z" fill="white"/>
<path d="M30.5882 15.6471C30.5882 17.0115 29.4645 18.1176 28.0784 18.1176C26.6923 18.1176 25.5686 17.0115 25.5686 15.6471C25.5686 14.2826 26.6923 13.1765 28.0784 13.1765C29.4645 13.1765 30.5882 14.2826 30.5882 15.6471Z" fill="white"/>
<path fill-rule="evenodd" clip-rule="evenodd" d="M28.6104 15.523C29.142 16.267 28.9603 17.2944 28.2045 17.8178L17.9761 24.9005C17.119 25.494 15.9775 25.5009 15.1132 24.9177L8.17053 20.2337L3.24155 24.4516C2.54415 25.0484 1.48731 24.9757 0.881046 24.2892C0.27478 23.6027 0.348662 22.5624 1.04607 21.9656L6.46326 17.3299C7.32581 16.5918 8.58603 16.5205 9.52877 17.1565L16.5259 21.8772L26.2792 15.1235C27.035 14.6001 28.0787 14.779 28.6104 15.523Z" fill="white"/>
<path d="M18.7405 12.7731C18.7405 14.184 17.6251 15.3277 16.2491 15.3277C14.8732 15.3277 13.7578 14.184 13.7578 12.7731C13.7578 11.3622 14.8732 10.2185 16.2491 10.2185C17.6251 10.2185 18.7405 11.3622 18.7405 12.7731Z" fill="white"/>
<path d="M10.436 11.07C10.436 12.4809 9.32056 13.6246 7.94463 13.6246C6.56869 13.6246 5.45328 12.4809 5.45328 11.07C5.45328 9.65914 6.56869 8.5154 7.94463 8.5154C9.32056 8.5154 10.436 9.65914 10.436 11.07Z" fill="white"/>
<path d="M28.7059 2.55462C28.7059 3.9655 27.5905 5.10924 26.2145 5.10924C24.8386 5.10924 23.7232 3.9655 23.7232 2.55462C23.7232 1.14374 24.8386 0 26.2145 0C27.5905 0 28.7059 1.14374 28.7059 2.55462Z" fill="white"/>
<path fill-rule="evenodd" clip-rule="evenodd" d="M27.3689 1.33013C28.0284 1.98385 28.0462 3.06203 27.4087 3.7383L18.1123 13.5995C17.4879 14.2618 16.564 14.5281 15.6945 14.2964L8.52579 12.3862L3.26512 17.424C2.59472 18.0659 1.54371 18.0291 0.917625 17.3417C0.291536 16.6543 0.327455 15.5766 0.997852 14.9346L6.59225 9.57723C7.2157 8.98021 8.0937 8.75176 8.91932 8.97177L16.0609 10.8748L25.0204 1.37094C25.6579 0.694674 26.7094 0.676399 27.3689 1.33013Z" fill="white"/>
<path d="M0.470581 1.88235C0.470581 1.36255 0.89196 0.941176 1.41176 0.941176H2.35293C2.87273 0.941176 3.29411 1.36256 3.29411 1.88235V31.0588C3.29411 31.5786 2.87273 32 2.35293 32H1.41176C0.89196 32 0.470581 31.5786 0.470581 31.0588V1.88235Z" fill="white"/>
<path d="M30.5882 29.1765C31.108 29.1765 31.5294 29.5978 31.5294 30.1176V31.0588C31.5294 31.5786 31.108 32 30.5882 32H1.41176C0.89196 32 0.470581 31.5786 0.470581 31.0588L0.470581 30.1176C0.470581 29.5978 0.891961 29.1765 1.41176 29.1765H30.5882Z" fill="white"/>
</svg>
