<svg width="32" height="32" viewBox="0 0 32 32" fill="none" xmlns="http://www.w3.org/2000/svg">
<path d="M14.5852 32C6.81467 32 0 25.1316 0 17.3021C0 9.62286 6.27482 3.13553 13.7456 3.13553C14.3694 3.13553 14.8412 3.63603 14.8412 4.25394C14.8412 4.25394 14.8412 15.0484 14.8412 16.1322C14.8412 17.2159 16.0368 17.3155 16.0368 17.3155H28.0424C28.6676 17.3155 29.1728 17.7837 29.1728 18.4002C29.1724 25.79 22.492 32 14.5852 32Z" fill="white"/>
<path d="M30.9418 14.3135H18.565C17.9821 14.3135 17.529 13.8644 17.529 13.2888V1.0422C17.529 0.466863 17.9911 0 18.574 0C26.4812 0 32 5.45543 32 13.2795C32 13.8562 31.5236 14.3135 30.9418 14.3135Z" fill="white"/>
</svg>
