<svg width="32" height="30" viewBox="0 0 32 30" fill="none" xmlns="http://www.w3.org/2000/svg">
<path d="M0.5 1.46969C0.5 0.934146 0.920581 0.499999 1.43939 0.499999H2.37879C2.8976 0.499999 3.31818 0.934147 3.31818 1.4697V28.5303C3.31818 29.0658 2.8976 29.5 2.37879 29.5H1.43939C0.920581 29.5 0.5 29.0658 0.5 28.5303V1.46969Z" fill="#3E74FE"/>
<path d="M30.5606 26.5909C31.0794 26.5909 31.5 27.0251 31.5 27.5606V28.5303C31.5 29.0658 31.0794 29.5 30.5606 29.5H1.43939C0.920581 29.5 0.5 29.0658 0.5 28.5303L0.5 27.5606C0.5 27.0251 0.920581 26.5909 1.43939 26.5909H30.5606Z" fill="#3E74FE"/>
</svg>
